<svg id="Layer_1" enable-background="new 0 0 128 128" height="512" viewBox="0 0 128 128" width="512" xmlns="http://www.w3.org/2000/svg"><path d="m5.8 10.7h116.5c2.2 0 4 1.8 4 4v98.6c0 2.2-1.8 4-4 4h-116.5c-2.2 0-4-1.8-4-4v-98.6c0-2.2 1.7-4 4-4z" fill="#e8efff"/><path d="m122.3 10.7h-116.5c-2.2 0-4 1.8-4 4v1h115.5c2.2 0 4 1.8 4 4v97.6h1c2.2 0 4-1.8 4-4v-98.6c0-2.2-1.8-4-4-4z" fill="#ccdfff"/><path d="m5.8 10.7h116.5c2.2 0 4 1.8 4 4v16h-124.5v-16c0-2.2 1.7-4 4-4z" fill="#5a6571"/><path d="m122.3 10.7h-116.5c-2.2 0-4 1.8-4 4v1h115.5c2.2 0 4 1.8 4 4v11h5v-16c0-2.2-1.8-4-4-4z" fill="#49545b"/><g fill="#001522"><path d="m94.1 32.4c1 0 1.8-.8 1.8-1.8s-.8-1.8-1.8-1.8h-3.4c-1 0-1.8.8-1.8 1.8s.8 1.8 1.8 1.8z"/><path d="m122.3 8.9h-116.5c-3.2.1-5.8 2.6-5.8 5.8v73.7c0 1 .8 1.8 1.8 1.8s1.8-.8 1.8-1.8v-56h79.3c1 0 1.8-.8 1.8-1.8s-.8-1.8-1.8-1.8h-79.4v-14.1c0-1.2 1-2.2 2.3-2.3h116.5c1.2 0 2.2 1 2.3 2.3v14.2h-22.6c-1 0-1.8.8-1.8 1.8s.8 1.8 1.8 1.8h22.5v80.9c0 1.2-1 2.2-2.3 2.3h-116.4c-1.2 0-2.2-1-2.3-2.3v-11c0-1-.8-1.8-1.8-1.8s-1.7.7-1.7 1.7v11c0 3.2 2.6 5.7 5.8 5.8h116.5c3.2 0 5.7-2.6 5.8-5.8v-98.6c-.1-3.2-2.7-5.7-5.8-5.8z"/><path d="m64 39.3c-10.3 0-20 4.5-26.6 12.4-.1.1-.2.2-.3.3v.1c-10.4 12.8-10.4 31.1 0 43.9v.1l.3.3c12.3 14.7 34.1 16.6 48.8 4.3 1.5-1.3 3-2.7 4.3-4.2.2-.2.4-.4.5-.6 10.3-12.7 10.3-30.9 0-43.6-.1-.2-.3-.5-.5-.6-6.6-7.9-16.3-12.4-26.5-12.4zm31.2 32.9h-11.6c-.1-4.6-.7-9.1-1.9-13.5 2.6-.9 5-2 7.3-3.4 3.7 4.9 5.8 10.8 6.2 16.9zm-6.2 20.5c-2.3-1.4-4.8-2.5-7.3-3.4 1.2-4.4 1.8-9 1.9-13.5h11.6c-.4 6.1-2.5 11.9-6.2 16.9zm-56.2-17h11.6c.1 4.6.7 9.1 1.9 13.5-2.6.9-5 2-7.3 3.4-3.7-4.9-5.8-10.7-6.2-16.9zm6.2-20.4c2.3 1.4 4.8 2.5 7.3 3.4-1.2 4.4-1.8 9-1.9 13.5h-11.6c.4-6.1 2.5-12 6.2-16.9zm26.8 6.2c4.2-.1 8.4-.7 12.5-1.8 1.1 4.1 1.7 8.3 1.8 12.5h-14.3zm0-3.5v-15c4.7 1 8.9 6.2 11.5 13.5-3.8.9-7.7 1.4-11.5 1.5zm-3.5-15.1v15.1c-3.9-.1-7.7-.6-11.5-1.6 2.6-7.3 6.7-12.4 11.5-13.5zm0 18.6v10.7h-14.4c.1-4.2.7-8.4 1.8-12.5 4.1 1.1 8.3 1.7 12.6 1.8zm-14.4 14.2h14.3v10.7c-4.2.1-8.4.7-12.5 1.8-1.1-4.1-1.7-8.2-1.8-12.5zm14.4 14.2v15.1c-4.7-1-8.9-6.2-11.5-13.5 3.7-.9 7.6-1.4 11.5-1.6zm3.5 15.1v-15.1c3.9.1 7.7.6 11.5 1.6-2.7 7.3-6.8 12.5-11.5 13.5zm0-18.6v-10.7h14.3c-.1 4.2-.7 8.4-1.8 12.5-4.1-1-8.3-1.6-12.5-1.8zm20.9-33.8c-1.9 1.1-4 2.1-6.1 2.8-1.3-3.9-3.4-7.6-6.1-10.8 4.7 1.7 8.9 4.4 12.2 8zm-33.3-8c-2.7 3.2-4.8 6.8-6.1 10.8-2.1-.7-4.1-1.7-6.1-2.8 3.4-3.6 7.6-6.3 12.2-8zm-12.1 50.8c1.9-1.1 4-2.1 6.1-2.8 1.3 3.9 3.4 7.6 6.1 10.8-4.7-1.7-8.9-4.5-12.2-8zm33.3 8c2.7-3.2 4.8-6.8 6.1-10.8 2.1.7 4.1 1.7 6.1 2.8-3.4 3.5-7.6 6.3-12.2 8z"/><path d="m11.2 18.9c-1 0-1.8.8-1.8 1.8s.8 1.8 1.8 1.8h6c1 0 1.8-.8 1.8-1.8s-.8-1.8-1.8-1.8z"/><path d="m28 18.9c-1 0-1.8.8-1.8 1.8s.8 1.8 1.8 1.8h6c1 0 1.8-.8 1.8-1.8s-.8-1.8-1.8-1.8z"/><path d="m44.9 18.9c-1 0-1.8.8-1.8 1.8s.8 1.8 1.8 1.8h6c1 0 1.8-.8 1.8-1.8s-.8-1.8-1.8-1.8z"/></g></svg>